{"title":"Formula 1 - Thursday Drivers Press Conference - China","uid":8363294,"size":94110733,"categoryP":"video","categoryS":"tv_shows","magnet":"?xt=urn:btih:8fdd4f899546ae55dc689e2cb8766dfcf012ba50&amp;dn=Formula+1+-+Thursday+Drivers+Press+Conference+-+China&amp;tr=udp%3A%2F%2Ftracker.openbittorrent.com%3A80&amp;tr=udp%3A%2F%2Fopen.demonii.com%3A1337&amp;tr=udp%3A%2F%2Ftracker.coppersurfer.tk%3A6969&amp;tr=udp%3A%2F%2Fexodus.desync.com%3A6969","seeders":1,"leechers":0,"uploader":"IAMH67","files":5,"time":1365696416,"description":"FIA Thursday press conference - China\n\nDrivers - Mark Webber (Red Bull Racing), Nico Rosberg (Mercedes), Sergio Perez (McLaren), Nico Hulkenberg (Sauber), Romain Grosjean (Lotus), Adrian Sutil (Force India) answer the questions of the press. \n\nPhoto of drivers :\n &lt;a href=&quot;\nhttp://i.imgur.com/pLFixSI.jpg&quot; rel=&quot;nofollow&quot; target=&quot;_NEW&quot;&gt;\nhttp://i.imgur.com/pLFixSI.jpg&lt;/a&gt;\n\nAired on l1 April 2013 Sky Sports F1. Runtime 28+ minutes.\n\nTechnical Information:\n\nVideo\n\nFormat                         : AVC\nFormat/Info                    : Advanced Video Codec\nFormat profile                 : &lt;a class=&quot;__cf_email__&quot; href=&quot;/cdn-cgi/l/email-protection&quot; data-cfemail=&quot;b2ffd3dbdcf2fe819c82&quot;&gt;[email&amp;#160;protected]&lt;/a&gt;&lt;script cf-hash='f9e31' type=&quot;text/javascript&quot;&gt;\n/* &lt;![CDATA[ */!function(){try{var t=&quot;currentScript&quot;in document?document.currentScript:function(){for(var t=document.getElementsByTagName(&quot;script&quot;),e=t.length;e--;)if(t[e].getAttribute(&quot;cf-hash&quot;))return t[e]}();if(t&amp;&amp;t.previousSibling){var e,r,n,i,c=t.previousSibling,a=c.getAttribute(&quot;data-cfemail&quot;);if(a){for(e=&quot;&quot;,r=parseInt(a.substr(0,2),16),n=2;a.length-n;n+=2)i=parseInt(a.substr(n,2),16)^r,e+=String.fromCharCode(i);e=document.createTextNode(e),c.parentNode.replaceChild(e,c)}}}catch(u){}}();/* ]]&gt; */&lt;/script&gt;\nFormat settings, CABAC         : Yes\nFormat settings, ReFrames      : 3 frames\nFormat settings, GOP           : M=1, N=50\nCodec ID                       : 7\nDuration                       : 28mn 34s\nBit rate                       : 301 Kbps\nWidth                          : 624 pixels\nHeight                         : 328 pixels\nDisplay aspect ratio           : 1.902\nFrame rate mode                : Constant\nFrame rate                     : 25.000 fps\nColor space                    : YUV\nChroma subsampling             : 4:2:0\nBit depth                      : 8 bits\nScan type                      : Progressive\nBits/(Pixel*Frame)             : 0.059\nStream size                    : 61.5 MiB (69%)\n\nAudio\n\nFormat                         : AAC\nFormat/Info                    : Advanced Audio Codec\nFormat profile                 : LC\nCodec ID                       : 10\nDuration                       : 28mn 34s\nBit rate                       : 129 Kbps\nChannel(s)                     : 2 channels\nChannel positions              : Front: L R\nSampling rate                  : 44.1 KHz\nCompression mode               : Lossy\nStream size                    : 26.3 MiB (29%)\n\n\nScreens : \n &lt;a href=&quot;\nhttp://i.imgur.com/Pu6WJuD.jpg&quot; rel=&quot;nofollow&quot; target=&quot;_NEW&quot;&gt;\nhttp://i.imgur.com/Pu6WJuD.jpg&lt;/a&gt;\n &lt;a href=&quot;\nhttp://i.imgur.com/ul5vs4g.jpg&quot; rel=&quot;nofollow&quot; target=&quot;_NEW&quot;&gt;\nhttp://i.imgur.com/ul5vs4g.jpg&lt;/a&gt;","torrent":{"xt":"urn:btih:8fdd4f899546ae55dc689e2cb8766dfcf012ba50","amp;dn":"Formula+1+-+Thursday+Drivers+Press+Conference+-+China","amp;tr":["udp%3A%2F%2Ftracker.openbittorrent.com%3A80","udp%3A%2F%2Fopen.demonii.com%3A1337","udp%3A%2F%2Ftracker.coppersurfer.tk%3A6969","udp%3A%2F%2Fexodus.desync.com%3A6969"],"infoHash":"8fdd4f899546ae55dc689e2cb8766dfcf012ba50","infoHashBuffer":{"type":"Buffer","data":[143,221,79,137,149,70,174,85,220,104,158,44,184,118,109,252,240,18,186,80]},"announce":[],"urlList":[]}}